<svg xmlns="http://www.w3.org/2000/svg" viewBox="0 0 20.133 13.908">
  <path d="M16642.449,23626.426a1.956,1.956,0,0,1-1.309-.494l-5.184-4.834a1.692,1.692,0,0,1-.553-1.254,1.606,1.606,0,0,1,.553-1.184,1.856,1.856,0,0,1,1.281-.494,1.969,1.969,0,0,1,1.311.494l3.908,3.635c.012-.012.5-.471,1.244-1.164,1.041-.973,2.578-2.41,4.012-3.746,2.484-2.32,4.68-4.373,4.68-4.373a1.853,1.853,0,0,1,1.283-.494,1.949,1.949,0,0,1,1.309.494,1.582,1.582,0,0,1,0,2.4l-8.125,7.594-3.127,2.924A1.86,1.86,0,0,1,16642.449,23626.426Z" transform="translate(-16635.404 -23612.518)" fill="currentColor" />
</svg>
