<svg xmlns="http://www.w3.org/2000/svg" viewBox="0 0 60 59.994">
  <path d="M65.688,61.4H42.117A10.713,10.713,0,0,1,31.4,50.686V27.121A10.713,10.713,0,0,1,42.117,16.406H65.688A10.713,10.713,0,0,1,76.4,27.121V50.686A10.713,10.713,0,0,1,65.688,61.4ZM70,27.15a4.286,4.286,0,0,0-4.287-4.287H42.137A4.286,4.286,0,0,0,37.85,27.15V50.725a4.286,4.286,0,0,0,4.287,4.287H65.719a4.286,4.286,0,0,0,4.287-4.287ZM63.557,42.161h-6.47v6.421a2.123,2.123,0,0,1-2.124,2.124H52.821A2.123,2.123,0,0,1,50.7,48.583V42.161h-6.47a2.121,2.121,0,0,1-2.121-2.124v-2.19a2.123,2.123,0,0,1,2.121-2.124H50.7v-6.47a2.123,2.123,0,0,1,2.124-2.124h2.142a2.123,2.123,0,0,1,2.124,2.124v6.47h6.47a2.123,2.123,0,0,1,2.124,2.124v2.19A2.126,2.126,0,0,1,63.557,42.161ZM27.135,70.01H46.382a4.283,4.283,0,0,0,4.28-4.217h6.446A10.709,10.709,0,0,1,46.4,76.4H27.118A10.713,10.713,0,0,1,16.4,65.685V46.41A10.714,10.714,0,0,1,27.111,35.7V42.2a4.283,4.283,0,0,0-4.259,4.283v19.24a4.28,4.28,0,0,0,4.283,4.287Z" transform="translate(-16.403 -16.406)" fill="currentColor" fill-rule="evenodd"/>
</svg>
