<svg xmlns="http://www.w3.org/2000/svg" viewBox="0 0 47.5 52.25">
  <g transform="translate(-18.75 -15.625)">
    <path d="M36.3,21.675H51.7c1.064,0,1.925-1.354,1.925-3.025s-.861-3.025-1.925-3.025H36.3c-1.064,0-1.925,1.354-1.925,3.025S35.236,21.675,36.3,21.675Z" transform="translate(-1.5)"/>
    <path d="M63.875,28.125H21.125a2.235,2.235,0,1,0,0,4.461H23.5v29a6.92,6.92,0,0,0,7.125,6.692h23.75A6.92,6.92,0,0,0,61.5,61.583v-29h2.375a2.235,2.235,0,1,0,0-4.461Zm-28.5,29a2.38,2.38,0,0,1-4.75,0V39.278a2.38,2.38,0,0,1,4.75,0Zm9.5,0a2.38,2.38,0,0,1-4.75,0V39.278a2.38,2.38,0,0,1,4.75,0Zm9.5,0a2.38,2.38,0,0,1-4.75,0V39.278a2.38,2.38,0,0,1,4.75,0Z" transform="translate(0 -0.4)"/>
  </g>
</svg>
