<svg xmlns="http://www.w3.org/2000/svg" viewBox="0 0 50 52.193">
  <path d="M51.985,10.8h-13.5V8.933a6.51,6.51,0,0,0-6.53-6.53H26.9a6.51,6.51,0,0,0-6.53,6.53V10.8H6.87a2.47,2.47,0,0,0,0,4.94H8.681v29.8A9.064,9.064,0,0,0,17.737,54.6H41.063a9.064,9.064,0,0,0,9.056-9.056V15.793H51.93a2.5,2.5,0,0,0,.056-5ZM25.367,8.986A1.534,1.534,0,0,1,26.9,7.449h5.049A1.534,1.534,0,0,1,33.49,8.986v1.865l-8.123,0ZM45.179,45.54a4.11,4.11,0,0,1-4.116,4.116H17.737A4.11,4.11,0,0,1,13.62,45.54V15.793H45.179Z" transform="translate(-4.4 -2.403)" fill="currentColor"/>
  <path d="M34.73,60.781a2.882,2.882,0,0,0,4.022,0l5.218-5.218,5.218,5.218a2.882,2.882,0,0,0,4.022,0,2.807,2.807,0,0,0,0-4.022L47.994,51.54l5.218-5.218A2.844,2.844,0,0,0,49.19,42.3l-5.155,5.218L38.817,42.3a2.844,2.844,0,0,0-4.022,4.022l5.218,5.218-5.218,5.218a2.865,2.865,0,0,0-.064,4.022Z" transform="translate(-19.003 -21.604)" fill="currentColor"/>
</svg>
